<svg width="48" height="48" viewBox="0 0 48 48" fill="none" xmlns="http://www.w3.org/2000/svg">
<circle cx="24" cy="24" r="22.5" stroke="black" stroke-width="3"/>
<path d="M14.29 18.5H16.77V34H14.29V18.5ZM13.763 13.788C13.763 13.3127 13.918 12.9097 14.228 12.579C14.5586 12.2277 14.972 12.052 15.468 12.052C15.964 12.052 16.3876 12.2277 16.739 12.579C17.0903 12.9097 17.266 13.3127 17.266 13.788C17.266 14.2633 17.0903 14.656 16.739 14.966C16.3876 15.276 15.964 15.431 15.468 15.431C14.972 15.431 14.5586 15.276 14.228 14.966C13.918 14.656 13.763 14.2633 13.763 13.788ZM32.0089 34V25.165C32.0089 23.553 31.7712 22.344 31.2959 21.538C30.8412 20.7113 29.9939 20.298 28.7539 20.298C27.6586 20.298 26.7492 20.5977 26.0259 21.197C25.3232 21.7757 24.8272 22.5093 24.5379 23.398V34H22.0579V18.5H23.7939L24.2589 20.391H24.3829C24.8789 19.7297 25.5402 19.1923 26.3669 18.779C27.2142 18.345 28.2166 18.128 29.3739 18.128C30.2212 18.128 30.9652 18.2313 31.6059 18.438C32.2466 18.624 32.7736 18.965 33.1869 19.461C33.6209 19.957 33.9412 20.6287 34.1479 21.476C34.3752 22.3027 34.4889 23.3567 34.4889 24.638V34H32.0089Z" fill="black"/>
<path d="M14.29 18.5V17.5H13.29V18.5H14.29ZM16.77 18.5H17.77V17.5H16.77V18.5ZM16.77 34V35H17.77V34H16.77ZM14.29 34H13.29V35H14.29V34ZM14.228 12.579L13.4998 11.8936L13.4984 11.8951L14.228 12.579ZM16.739 12.579L16.0319 13.2861L16.0426 13.2968L16.0536 13.3072L16.739 12.579ZM14.228 14.966L13.5209 15.6731L13.5323 15.6845L13.544 15.6955L14.228 14.966ZM14.29 19.5H16.77V17.5H14.29V19.5ZM15.77 18.5V34H17.77V18.5H15.77ZM16.77 33H14.29V35H16.77V33ZM15.29 34V18.5H13.29V34H15.29ZM14.763 13.788C14.763 13.5531 14.8304 13.3985 14.9575 13.2629L13.4984 11.8951C13.0056 12.4208 12.763 13.0722 12.763 13.788H14.763ZM14.9562 13.2644C15.092 13.1201 15.239 13.052 15.468 13.052V11.052C14.705 11.052 14.0253 11.3352 13.4998 11.8936L14.9562 13.2644ZM15.468 13.052C15.6982 13.052 15.8677 13.1219 16.0319 13.2861L17.4461 11.8719C16.9076 11.3334 16.2297 11.052 15.468 11.052V13.052ZM16.0536 13.3072C16.2076 13.4521 16.266 13.5931 16.266 13.788H18.266C18.266 13.0323 17.973 12.3672 17.4243 11.8508L16.0536 13.3072ZM16.266 13.788C16.266 13.9812 16.21 14.0991 16.0774 14.2162L17.4006 15.7158C17.9706 15.2129 18.266 14.5455 18.266 13.788H16.266ZM16.0774 14.2162C15.9201 14.355 15.7359 14.431 15.468 14.431V16.431C16.1921 16.431 16.8552 16.197 17.4006 15.7158L16.0774 14.2162ZM15.468 14.431C15.1999 14.431 15.039 14.3556 14.9119 14.2365L13.544 15.6955C14.0783 16.1964 14.744 16.431 15.468 16.431V14.431ZM14.9351 14.2589C14.8294 14.1532 14.763 14.0228 14.763 13.788H12.763C12.763 14.5039 13.0066 15.1588 13.5209 15.6731L14.9351 14.2589ZM32.0089 34H31.0089V35H32.0089V34ZM31.2959 21.538L30.4197 22.0199L30.4269 22.0331L30.4345 22.046L31.2959 21.538ZM26.0259 21.197L26.6616 21.9689L26.6639 21.967L26.0259 21.197ZM24.5379 23.398L23.587 23.0884L23.5379 23.2393V23.398H24.5379ZM24.5379 34V35H25.5379V34H24.5379ZM22.0579 34H21.0579V35H22.0579V34ZM22.0579 18.5V17.5H21.0579V18.5H22.0579ZM23.7939 18.5L24.765 18.2612L24.5778 17.5H23.7939V18.5ZM24.2589 20.391L23.2878 20.6298L23.475 21.391H24.2589V20.391ZM24.3829 20.391V21.391H24.8829L25.1829 20.991L24.3829 20.391ZM26.3669 18.779L26.8141 19.6735L26.8228 19.669L26.3669 18.779ZM31.6059 18.438L31.2989 19.3897L31.3129 19.3942L31.3271 19.3983L31.6059 18.438ZM33.1869 19.461L32.4187 20.1012L32.4264 20.1104L32.4343 20.1195L33.1869 19.461ZM34.1479 21.476L33.1764 21.713L33.1798 21.7271L33.1837 21.7412L34.1479 21.476ZM34.4889 34V35H35.4889V34H34.4889ZM33.0089 34V25.165H31.0089V34H33.0089ZM33.0089 25.165C33.0089 23.4874 32.7674 22.0645 32.1573 21.03L30.4345 22.046C30.7751 22.6235 31.0089 23.6186 31.0089 25.165H33.0089ZM32.1721 21.0561C31.486 19.8086 30.2262 19.298 28.7539 19.298V21.298C29.7616 21.298 30.1965 21.6141 30.4197 22.0199L32.1721 21.0561ZM28.7539 19.298C27.4662 19.298 26.3196 19.655 25.3879 20.427L26.6639 21.967C27.1789 21.5403 27.8509 21.298 28.7539 21.298V19.298ZM25.3902 20.4251C24.5365 21.1281 23.9336 22.0239 23.587 23.0884L25.4888 23.7076C25.7208 22.9948 26.1099 22.4232 26.6616 21.9689L25.3902 20.4251ZM23.5379 23.398V34H25.5379V23.398H23.5379ZM24.5379 33H22.0579V35H24.5379V33ZM23.0579 34V18.5H21.0579V34H23.0579ZM22.0579 19.5H23.7939V17.5H22.0579V19.5ZM22.8228 18.7388L23.2878 20.6298L25.23 20.1522L24.765 18.2612L22.8228 18.7388ZM24.2589 21.391H24.3829V19.391H24.2589V21.391ZM25.1829 20.991C25.5752 20.4679 26.1097 20.0256 26.8141 19.6734L25.9197 17.8846C24.9707 18.359 24.1826 18.9915 23.5829 19.791L25.1829 20.991ZM26.8228 19.669C27.5018 19.3213 28.3413 19.128 29.3739 19.128V17.128C28.0918 17.128 26.9267 17.3687 25.911 17.889L26.8228 19.669ZM29.3739 19.128C30.1427 19.128 30.7792 19.2221 31.2989 19.3897L31.9129 17.4863C31.1512 17.2406 30.2998 17.128 29.3739 17.128V19.128ZM31.3271 19.3983C31.7831 19.5307 32.1374 19.7636 32.4187 20.1012L33.9551 18.8208C33.4098 18.1664 32.71 17.7173 31.8847 17.4777L31.3271 19.3983ZM32.4343 20.1195C32.7339 20.4619 32.9959 20.9732 33.1764 21.713L35.1194 21.239C34.8865 20.2842 34.5079 19.4521 33.9395 18.8025L32.4343 20.1195ZM33.1837 21.7412C33.3787 22.4502 33.4889 23.4067 33.4889 24.638H35.4889C35.4889 23.3066 35.3718 22.1552 35.1121 21.2108L33.1837 21.7412ZM33.4889 24.638V34H35.4889V24.638H33.4889ZM34.4889 33H32.0089V35H34.4889V33Z" fill="black"/>
</svg>
